<svg width="20" height="20" viewBox="0 0 20 20" fill="none" xmlns="http://www.w3.org/2000/svg">
<g id="add_location_FILL1_wght400_GRAD0_opsz48 1">
<path id="Vector" d="M9.37498 11.4583H10.625V8.95834H13.125V7.70834H10.625V5.20834H9.37498V7.70834H6.87498V8.95834H9.37498V11.4583ZM9.99998 18.3333C7.76387 16.4306 6.09373 14.6632 4.98956 13.0313C3.8854 11.3993 3.33331 9.88889 3.33331 8.5C3.33331 6.41667 4.00345 4.75695 5.34373 3.52084C6.68401 2.28473 8.23609 1.66667 9.99998 1.66667C11.7639 1.66667 13.316 2.28473 14.6562 3.52084C15.9965 4.75695 16.6666 6.41667 16.6666 8.5C16.6666 9.88889 16.1146 11.3993 15.0104 13.0313C13.9062 14.6632 12.2361 16.4306 9.99998 18.3333Z" fill="#4853F3"/>
</g>
</svg>
