<svg width="48" height="48" viewBox="0 0 48 48" fill="none" xmlns="http://www.w3.org/2000/svg">
<rect width="48" height="48" rx="24" fill="#B7C7FD"/>
<path d="M24.2213 33.36C22.9813 33.36 21.8613 33.148 20.8613 32.724C19.8693 32.292 19.0493 31.68 18.4013 30.888C17.7613 30.088 17.3453 29.14 17.1533 28.044L19.7693 27.648C20.0333 28.704 20.5853 29.528 21.4253 30.12C22.2653 30.704 23.2453 30.996 24.3653 30.996C25.0613 30.996 25.7013 30.888 26.2853 30.672C26.8693 30.448 27.3373 30.132 27.6893 29.724C28.0493 29.308 28.2293 28.812 28.2293 28.236C28.2293 27.924 28.1733 27.648 28.0613 27.408C27.9573 27.168 27.8093 26.96 27.6173 26.784C27.4333 26.6 27.2053 26.444 26.9333 26.316C26.6693 26.18 26.3773 26.064 26.0573 25.968L21.6293 24.66C21.1973 24.532 20.7573 24.368 20.3093 24.168C19.8613 23.96 19.4493 23.692 19.0733 23.364C18.7053 23.028 18.4053 22.616 18.1733 22.128C17.9413 21.632 17.8253 21.032 17.8253 20.328C17.8253 19.264 18.0973 18.364 18.6413 17.628C19.1933 16.884 19.9373 16.324 20.8733 15.948C21.8093 15.564 22.8573 15.372 24.0173 15.372C25.1853 15.388 26.2293 15.596 27.1493 15.996C28.0773 16.396 28.8453 16.972 29.4533 17.724C30.0693 18.468 30.4933 19.372 30.7253 20.436L28.0373 20.892C27.9173 20.244 27.6613 19.688 27.2693 19.224C26.8773 18.752 26.3973 18.392 25.8293 18.144C25.2613 17.888 24.6453 17.756 23.9813 17.748C23.3413 17.732 22.7533 17.828 22.2173 18.036C21.6893 18.244 21.2653 18.536 20.9453 18.912C20.6333 19.288 20.4773 19.72 20.4773 20.208C20.4773 20.688 20.6173 21.076 20.8973 21.372C21.1773 21.668 21.5213 21.904 21.9293 22.08C22.3453 22.248 22.7573 22.388 23.1653 22.5L26.3573 23.4C26.7573 23.512 27.2093 23.664 27.7133 23.856C28.2253 24.04 28.7173 24.3 29.1893 24.636C29.6693 24.972 30.0653 25.42 30.3773 25.98C30.6893 26.532 30.8453 27.228 30.8453 28.068C30.8453 28.94 30.6693 29.708 30.3173 30.372C29.9653 31.028 29.4813 31.58 28.8653 32.028C28.2573 32.468 27.5533 32.8 26.7533 33.024C25.9533 33.248 25.1093 33.36 24.2213 33.36Z" fill="white"/>
</svg>
