<svg width="40" height="40" viewBox="0 0 40 40" fill="none" xmlns="http://www.w3.org/2000/svg">
<g id="Frame">
<g id="Group">
<path id="Vector" d="M20.8481 6.24936C20.6836 6.23796 20.5213 6.29204 20.3965 6.39981C20.2716 6.50758 20.1945 6.66032 20.1818 6.82474C20.1691 6.98916 20.2219 7.15193 20.3287 7.27759C20.4355 7.40325 20.5876 7.48162 20.7519 7.49561C22.7656 7.6629 24.6754 8.46051 26.2099 9.77514C27.7445 11.0898 28.8257 12.8545 29.3 14.8187C28.5023 14.8495 27.714 14.6386 27.0382 14.2137C24.8829 13.2036 22.531 12.6823 20.1507 12.687C17.7704 12.6918 15.4206 13.2225 13.2694 14.2412C11.9244 15.015 11.0781 14.7637 10.7425 14.5937C11.2087 12.8131 12.18 11.2054 13.5394 9.96447C14.8988 8.72353 16.5882 7.90236 18.4038 7.59999C18.5624 7.56749 18.7023 7.47467 18.7939 7.34109C18.8854 7.20751 18.9216 7.04359 18.8947 6.88388C18.8678 6.72417 18.7799 6.58114 18.6497 6.48493C18.5194 6.38872 18.3568 6.34684 18.1963 6.36811C6.21002 8.60561 6.24752 25.4681 18.195 27.7187C19.638 27.9649 21.1159 27.916 22.5394 27.5748C23.963 27.2336 25.3025 26.6074 26.4772 25.7339C27.6518 24.8603 28.6371 23.7577 29.3735 22.4926C30.11 21.2275 30.5822 19.8262 30.7618 18.3734C30.9413 16.9206 30.8244 15.4465 30.4181 14.0402C30.0118 12.6339 29.3246 11.3246 28.3979 10.1914C27.4713 9.05819 26.3245 8.12465 25.0268 7.44721C23.7292 6.76977 22.3077 6.36249 20.8481 6.24999V6.24936ZM10.7025 19.3094L12.6188 19.0969C12.9939 19.0537 13.3738 19.1091 13.721 19.2575C14.0682 19.4059 14.3707 19.6422 14.5988 19.9431L16.5763 22.5087C16.7865 22.7872 16.9312 23.1096 16.9994 23.4519L17.5169 26.2894C15.8598 25.8432 14.3531 24.96 13.1543 23.7321C11.9556 22.5041 11.1088 20.9766 10.7025 19.3094ZM18.8338 26.5419L18.2275 23.2194C18.1222 22.686 17.8969 22.1835 17.5688 21.75L15.5894 19.1812C15.2281 18.712 14.7522 18.3436 14.2075 18.1114C13.6628 17.8791 13.0675 17.7908 12.4788 17.855L10.4875 18.0756C10.3991 17.3341 10.4054 16.5843 10.5063 15.8444C11.0709 16.0173 11.6671 16.061 12.2509 15.9723C12.8347 15.8836 13.391 15.6647 13.8788 15.3319C15.8565 14.4288 18.0053 13.9615 20.1795 13.9617C22.3537 13.9619 24.5024 14.4296 26.48 15.3331C27.2842 15.8178 28.2048 16.0753 29.1438 16.0781C29.75 15.9112 29.5131 16.6312 29.5744 17.0406C29.5723 17.3865 29.551 17.7321 29.5106 18.0756L27.5206 17.855C26.932 17.7901 26.3366 17.878 25.7918 18.1101C25.247 18.3421 24.7711 18.7106 24.41 19.18L22.4263 21.7537C22.0985 22.1886 21.874 22.6923 21.77 23.2269L21.1657 26.5419C20.3909 26.6372 19.6073 26.6372 18.8325 26.5419H18.8338ZM22.4825 26.2887L22.9988 23.4594C23.0659 23.116 23.2099 22.7922 23.42 22.5125L25.4019 19.9412C25.6304 19.6409 25.9331 19.4052 26.2802 19.2573C26.6274 19.1093 27.007 19.0543 27.3819 19.0975L29.2969 19.31C28.8906 20.9771 28.0437 22.5044 26.845 23.7321C25.6462 24.9598 24.1395 25.8428 22.4825 26.2887ZM5.49127 29.59C5.42464 29.4382 5.30042 29.319 5.14593 29.2588C4.99145 29.1985 4.81936 29.2021 4.66752 29.2687C4.51569 29.3354 4.39654 29.4596 4.33629 29.6141C4.27605 29.7686 4.27964 29.9406 4.34627 30.0925C4.686 30.7286 4.89323 31.427 4.95542 32.1454C5.01762 32.8639 4.9335 33.5875 4.70815 34.2725L4.17065 35.8662C4.14168 35.9446 4.12873 36.028 4.13255 36.1115C4.13637 36.1949 4.15689 36.2768 4.19289 36.3522C4.22889 36.4276 4.27965 36.495 4.34216 36.5505C4.40467 36.6059 4.47766 36.6482 4.55682 36.675C4.63598 36.7017 4.71969 36.7124 4.80302 36.7062C4.88635 36.7 4.9676 36.6772 5.04195 36.6391C5.11631 36.601 5.18228 36.5484 5.23594 36.4843C5.28961 36.4203 5.32989 36.3461 5.3544 36.2662L5.8919 34.6725C6.16798 33.8415 6.27476 32.9636 6.20596 32.0907C6.13715 31.2178 5.89414 30.3675 5.49127 29.59Z" fill="#1D2939"/>
<path id="Vector_2" d="M37.0319 26.9644C37.5599 25.7647 37.6434 24.4163 37.2675 23.1606L36.0969 19.2506C35.9647 18.813 35.7328 18.4121 35.4194 18.0794C35.1059 17.7466 34.7195 17.4912 34.2906 17.3331L33.8844 17.1837C33.885 17.1362 33.8906 17.0887 33.8906 17.0406C33.8906 13.3566 32.4272 9.82346 29.8222 7.21846C27.2172 4.61347 23.684 3.14999 20 3.14999C16.316 3.14999 12.7829 4.61347 10.1779 7.21846C7.57286 9.82346 6.10938 13.3566 6.10938 17.0406C6.10938 17.0894 6.11438 17.1375 6.11501 17.1862L5.71126 17.335C5.28209 17.4926 4.8953 17.7476 4.58125 18.0798C4.26721 18.4121 4.03445 18.8126 3.90126 19.25L2.73251 23.1625C2.35695 24.4165 2.43958 25.7632 2.96563 26.9619C3.21063 27.4537 3.37938 28.3725 4.13938 28.0756C4.2145 28.0425 4.28234 27.9949 4.33904 27.9355C4.39575 27.8761 4.4402 27.8062 4.46986 27.7296C4.49952 27.653 4.5138 27.5714 4.5119 27.4893C4.50999 27.4072 4.49194 27.3263 4.45876 27.2512L4.10876 26.4575C3.70286 25.5305 3.63951 24.4894 3.93001 23.52L5.09813 19.61C5.1765 19.3485 5.31713 19.11 5.50796 18.9148C5.69879 18.7196 5.93412 18.5736 6.19376 18.4894C6.27138 19.2311 6.40785 19.9655 6.60188 20.6856C6.21802 20.8687 5.9143 21.1857 5.74786 21.5771C5.58141 21.9684 5.56373 22.4071 5.69813 22.8106L6.73563 25.9162C6.93132 26.5009 6.97181 27.1263 6.85313 27.7312C6.83729 27.8118 6.83747 27.8947 6.85367 27.9752C6.86986 28.0557 6.90175 28.1322 6.94751 28.2003C6.99327 28.2685 7.05201 28.327 7.12038 28.3725C7.18874 28.4179 7.26539 28.4495 7.34595 28.4653C7.4265 28.4811 7.50939 28.481 7.58988 28.4648C7.67037 28.4486 7.74688 28.4167 7.81504 28.3709C7.88321 28.3252 7.94169 28.2664 7.98715 28.1981C8.03261 28.1297 8.06417 28.0531 8.08001 27.9725C8.52126 26.385 7.31688 23.91 6.88313 22.4137C6.85024 22.2924 6.86222 22.1632 6.91687 22.05C6.97153 21.9367 7.06519 21.847 7.18066 21.7972C7.29614 21.7475 7.4257 21.741 7.54555 21.7791C7.6654 21.8171 7.76751 21.8971 7.83313 22.0044C7.83313 22.0044 10.6706 26.5794 10.6931 26.6044C11.2579 27.3358 11.6152 28.2059 11.7275 29.1231C11.9431 30.6275 11.1588 32.0056 10.6506 33.5206C10.2065 34.3976 10.0333 35.3868 10.1531 36.3625C10.1907 36.5217 10.2891 36.6599 10.4274 36.7474C10.5657 36.8348 10.7328 36.8645 10.8927 36.8302C11.0527 36.7958 11.1928 36.7001 11.283 36.5636C11.3732 36.427 11.4062 36.2606 11.375 36.1C11.3267 35.406 11.4625 34.7115 11.7688 34.0869C12.3813 32.37 13.2144 30.7556 12.9706 29.0181C15.0999 30.2749 17.5272 30.9378 19.9997 30.9378C22.4722 30.9378 24.8995 30.2749 27.0288 29.0181C26.785 30.7569 27.6175 32.3687 28.23 34.0869C28.5365 34.7117 28.6726 35.4063 28.6244 36.1006C28.5941 36.2609 28.6277 36.4266 28.718 36.5625C28.8083 36.6983 28.9481 36.7935 29.1076 36.8277C29.267 36.8618 29.4336 36.8323 29.5716 36.7454C29.7096 36.6585 29.8082 36.5211 29.8463 36.3625C30.2069 33.7244 27.9075 31.6281 28.2719 29.1237C28.3884 28.2076 28.7453 27.3386 29.3063 26.605C29.3288 26.5794 32.1656 22.005 32.1656 22.005C32.2312 21.8975 32.3334 21.8174 32.4534 21.7792C32.5734 21.7411 32.7031 21.7476 32.8187 21.7975C32.9343 21.8473 33.028 21.9373 33.0825 22.0508C33.1371 22.1642 33.1488 22.2936 33.1156 22.415L32.0781 25.5194C31.8531 26.2181 31.4125 28.6094 32.6531 28.465C32.8158 28.433 32.959 28.3377 33.0515 28.2001C33.1439 28.0626 33.178 27.8939 33.1463 27.7312C33.0274 27.1263 33.0677 26.5009 33.2631 25.9162L34.3013 22.8119C34.436 22.4082 34.4185 21.9692 34.252 21.5776C34.0856 21.186 33.7816 20.8687 33.3975 20.6856C33.5917 19.9643 33.7282 19.2286 33.8056 18.4856L33.8619 18.5069C34.1083 18.5979 34.3303 18.7448 34.5103 18.9361C34.6903 19.1274 34.8235 19.3579 34.8994 19.6094L36.07 23.5194C36.3613 24.4904 36.297 25.5334 35.8888 26.4612L34.3088 30.0481C33.6633 31.5104 33.5909 33.1618 34.1056 34.675L34.6469 36.2687C34.7003 36.4258 34.8138 36.5552 34.9626 36.6285C35.1114 36.7019 35.2833 36.7131 35.4403 36.6597C35.5974 36.6063 35.7268 36.4927 35.8001 36.3439C35.8734 36.1951 35.8846 36.0233 35.8313 35.8662L35.2894 34.2731C34.875 33.0562 34.9332 31.7279 35.4525 30.5519L37.0319 26.9644ZM31.1038 21.3456L28.3269 25.8281C27.9988 26.2498 27.7272 26.7124 27.5188 27.2044C25.3434 28.8171 22.7072 29.6877 19.9993 29.6876C17.2913 29.6875 14.6552 28.8167 12.48 27.2037C12.2717 26.7123 12.0003 26.2501 11.6725 25.8287L8.89563 21.3462C8.66001 20.9722 8.29417 20.6988 7.86876 20.5787C3.43438 2.12124 31.6544 -2.145 32.64 17.0412C32.6368 18.2385 32.4653 19.4293 32.1306 20.5787C31.7052 20.6988 31.3394 20.9716 31.1038 21.3456Z" fill="#1D2939"/>
<path id="Vector_3" d="M22.8956 18.0787C22.7738 14.2512 17.225 14.2525 17.1038 18.0787C17.2256 21.9056 22.7744 21.905 22.8956 18.0787ZM20 19.7244C19.569 19.716 19.1585 19.5389 18.8567 19.2311C18.5549 18.9234 18.3858 18.5095 18.3858 18.0784C18.3858 17.6474 18.5549 17.2335 18.8567 16.9258C19.1585 16.618 19.569 16.4409 20 16.4325C20.431 16.4409 20.8415 16.618 21.1433 16.9258C21.4451 17.2335 21.6142 17.6474 21.6142 18.0784C21.6142 18.5095 21.4451 18.9234 21.1433 19.2311C20.8415 19.5389 20.431 19.716 20 19.7244Z" fill="#1D2939"/>
</g>
</g>
</svg>
