<svg width="24" height="24" viewBox="0 0 24 24" fill="none" xmlns="http://www.w3.org/2000/svg">
<g id="Frame">
<path id="Vector" d="M16.6667 13.8869C15.3333 15.2202 15.3333 16.5535 14 16.5535C12.6667 16.5535 11.3333 15.2202 10 13.8869C8.66667 12.5535 7.33333 11.2202 7.33333 9.88687C7.33333 8.55354 8.66667 8.55354 10 7.2202C11.3333 5.88687 7.33333 1.88687 6 1.88687C4.66667 1.88687 2 5.88687 2 5.88687C2 8.55354 4.74 13.9602 7.33333 16.5535C9.92667 19.1469 15.3333 21.8869 18 21.8869C18 21.8869 22 19.2202 22 17.8869C22 16.5535 18 12.5535 16.6667 13.8869Z" fill="url(#paint0_linear_1_384)"/>
</g>
<defs>
<linearGradient id="paint0_linear_1_384" x1="-3.77778" y1="-10.2137" x2="27.5" y2="31.5" gradientUnits="userSpaceOnUse">
<stop stop-color="#6AD7FF"/>
<stop offset="1" stop-color="#3A75EA"/>
</linearGradient>
</defs>
</svg>
