<svg width="40" height="40" viewBox="0 0 40 40" fill="none" xmlns="http://www.w3.org/2000/svg">
<g id="Frame" clip-path="url(#clip0_25_642)">
<g id="Group">
<path id="Vector" d="M14.1391 39.4551C14.0566 39.619 13.9301 39.7568 13.7738 39.8531C13.6175 39.9493 13.4376 40.0002 13.254 40.0001C13.0996 40.0001 12.9473 39.9638 12.8094 39.8941C9.75706 38.3567 7.23004 35.8295 5.69352 32.7779C5.57597 32.5434 5.55628 32.2719 5.63875 32.0229C5.72122 31.7739 5.89912 31.5678 6.1334 31.4498C6.36768 31.3319 6.63919 31.3117 6.88834 31.3937C7.13749 31.4757 7.34391 31.6533 7.46229 31.8873C8.80914 34.5622 11.0245 36.7777 13.7001 38.1253C13.9347 38.2435 14.1127 38.4499 14.195 38.6993C14.2773 38.9487 14.2572 39.2205 14.1391 39.4551ZM38.961 0.213007C38.8436 0.12033 38.7067 0.0554722 38.5606 0.0233067C38.4145 -0.00885867 38.263 -0.0074949 38.1175 0.0272956L20 4.35665L1.88257 0.0272956C1.73708 -0.00748106 1.58559 -0.00883427 1.43949 0.0233376C1.2934 0.0555095 1.15649 0.12037 1.03906 0.213046C0.921629 0.305723 0.826726 0.423805 0.761481 0.558423C0.696236 0.693042 0.662345 0.840695 0.662354 0.990291V23.9246C0.662352 24.1472 0.737363 24.3633 0.875278 24.538C1.01319 24.7127 1.20596 24.8359 1.42247 24.8876L5.00172 25.7428C5.12819 25.773 5.25938 25.778 5.38779 25.7575C5.5162 25.737 5.63932 25.6914 5.75012 25.6234C5.86091 25.5553 5.95721 25.4661 6.03352 25.3608C6.10984 25.2555 6.16466 25.1362 6.19487 25.0097C6.22508 24.8832 6.23009 24.7521 6.2096 24.6236C6.18911 24.4952 6.14353 24.3721 6.07546 24.2613C6.00738 24.1505 5.91816 24.0542 5.81287 23.9779C5.70758 23.9016 5.58829 23.8468 5.46182 23.8166L2.64269 23.143V2.24495L19.01 6.15612V11.2209C19.01 11.7678 19.4532 12.2111 20.0001 12.2111C20.5471 12.2111 20.9903 11.7678 20.9903 11.2209V6.15612L37.3576 2.24495V23.1431L34.1284 23.9148C34.0008 23.9439 33.8803 23.9981 33.7737 24.0741C33.6672 24.1501 33.5767 24.2465 33.5077 24.3576C33.4386 24.4688 33.3922 24.5926 33.3713 24.7218C33.3504 24.851 33.3553 24.983 33.3857 25.1103C33.4161 25.2376 33.4715 25.3576 33.5486 25.4634C33.6257 25.5692 33.723 25.6586 33.8348 25.7265C33.9467 25.7945 34.071 25.8395 34.2004 25.8592C34.3298 25.8788 34.4618 25.8725 34.5888 25.8408L38.5779 24.8876C38.7944 24.8359 38.9872 24.7127 39.1251 24.538C39.263 24.3633 39.338 24.1472 39.3379 23.9246V0.990291C39.3379 0.840677 39.304 0.693019 39.2387 0.558398C39.1734 0.423778 39.0785 0.305693 38.961 0.213007ZM31.7524 25.5874C31.7524 32.068 26.4803 37.3402 20 37.3402C13.5195 37.3402 8.24716 32.068 8.24716 25.5874C8.24716 19.107 13.5195 13.8347 20 13.8347C26.4803 13.8347 31.7524 19.107 31.7524 25.5874ZM19.0099 28.8827C17.9075 28.5509 17.0366 27.68 16.7048 26.5776H10.2773C10.7423 31.1774 14.4101 34.8452 19.0099 35.3101V28.8827ZM20 27.0476C20.8049 27.0476 21.46 26.3925 21.46 25.5875C21.46 24.7825 20.805 24.1275 20 24.1275C19.1949 24.1275 18.5399 24.7825 18.5399 25.5875C18.5399 26.3925 19.1949 27.0476 20 27.0476ZM29.7223 26.5776H23.2951C22.9633 27.6799 22.0923 28.5508 20.9902 28.8827V35.3101C25.5898 34.8452 29.2575 31.1774 29.7223 26.5776ZM29.7223 24.5973C29.2246 19.6719 25.0542 15.815 20 15.815C14.9457 15.815 10.7751 19.6719 10.2773 24.5973H16.7048C17.131 23.1812 18.4469 22.147 20 22.147C21.553 22.147 22.8689 23.1812 23.2951 24.5973H29.7223ZM33.8674 19.7266C33.9835 19.6681 34.087 19.5874 34.1719 19.4889C34.2569 19.3904 34.3216 19.2762 34.3623 19.1527C34.4031 19.0292 34.4191 18.8989 34.4095 18.7692C34.3999 18.6396 34.3649 18.5131 34.3063 18.3969C32.7694 15.3448 30.2422 12.8175 27.1904 11.2808C27.0743 11.2223 26.9478 11.1872 26.8181 11.1776C26.6884 11.168 26.5581 11.1841 26.4347 11.2248C26.3112 11.2656 26.1969 11.3303 26.0985 11.4152C26 11.5001 25.9192 11.6036 25.8607 11.7198C25.6149 12.2081 25.8113 12.8036 26.2997 13.0495C28.9748 14.3965 31.1902 16.612 32.5376 19.2875C32.596 19.4037 32.6768 19.5072 32.7753 19.5921C32.8738 19.677 32.988 19.7417 33.1115 19.7825C33.235 19.8233 33.3653 19.8393 33.495 19.8297C33.6247 19.8202 33.7512 19.7851 33.8674 19.7266Z" fill="#1D2939"/>
</g>
</g>
<defs>
<clipPath id="clip0_25_642">
<rect width="40" height="40" fill="white"/>
</clipPath>
</defs>
</svg>
