<svg width="40" height="40" viewBox="0 0 40 40" fill="none" xmlns="http://www.w3.org/2000/svg">
<g id="Frame">
<g id="Group">
<path id="Vector" d="M29.2887 21.5314C29.8664 21.5314 30.3397 21.098 30.3895 20.5234C30.4057 20.339 30.4487 20.1663 30.5182 20.0095C30.7648 19.4513 31.3129 19.1986 31.9477 18.9056C32.6204 18.5953 33.3823 18.2434 33.8489 17.4552C34.2246 16.8204 34.3263 16.0275 34.1511 15.0977C34.0525 14.5749 33.5954 14.1953 33.064 14.1953H27.4091V12.9672H29.2887C29.8664 12.9672 30.3395 12.5339 30.3895 11.9592C30.4053 11.7752 30.4487 11.6022 30.5179 11.4453C30.7648 10.8875 31.3129 10.6345 31.9477 10.3415C32.62 10.0311 33.3823 9.67953 33.8489 8.89102C34.2246 8.25625 34.3263 7.46336 34.1511 6.53383C34.0525 6.01078 33.5954 5.63109 33.064 5.63109H27.4091V5.2643C27.4091 4.11008 26.478 3.16984 25.3275 3.15367V2.72523C25.3278 1.2225 24.1052 0 22.6025 0H16.965C15.4624 0 14.2402 1.2225 14.2402 2.72523V3.15367C13.0896 3.16984 12.1586 4.11008 12.1586 5.2643V5.63109H6.50363C5.97207 5.63109 5.51488 6.01078 5.4166 6.53344C5.24144 7.46312 5.34308 8.25625 5.71847 8.89102C6.18535 9.67953 6.94738 10.0311 7.62004 10.3415C8.2548 10.6345 8.80285 10.8871 9.04941 11.4453C9.11902 11.6022 9.16207 11.7749 9.17824 11.9592C9.22824 12.5339 9.70129 12.9672 10.279 12.9672H12.1586V14.1953H6.50363C5.97207 14.1953 5.51488 14.5746 5.4166 15.0977C5.24144 16.0272 5.34308 16.8203 5.71847 17.4548C6.18535 18.2434 6.94738 18.5953 7.62004 18.9056C8.2548 19.1983 8.80285 19.4513 9.04941 20.0091C9.11871 20.1663 9.16207 20.3391 9.17824 20.523C9.22801 21.0977 9.70129 21.5314 10.279 21.5314H12.1582V22.7591H6.50363C5.97207 22.7591 5.51488 23.1388 5.4166 23.6618C5.24144 24.5911 5.34308 25.3842 5.71847 26.019C6.18535 26.8076 6.94738 27.1595 7.62004 27.4695C8.2548 27.7624 8.80285 28.0155 9.04941 28.5734C9.11871 28.7302 9.16207 28.9032 9.17824 29.0872C9.22801 29.6619 9.70129 30.0952 10.279 30.0952H12.1582V30.6189C12.1582 31.773 13.0893 32.7133 14.2399 32.7295V33.7143C14.2399 34.6915 15.0352 35.4865 16.012 35.4865H17.6609V39.4141C17.6609 39.5695 17.7226 39.7185 17.8325 39.8284C17.9424 39.9383 18.0914 40 18.2468 40C18.4022 40 18.5513 39.9383 18.6612 39.8284C18.771 39.7185 18.8328 39.5695 18.8328 39.4141V35.4956H20.735V39.4141C20.735 39.7379 20.9971 40 21.3209 40C21.4763 40 21.6253 39.9383 21.7352 39.8284C21.8451 39.7185 21.9068 39.5695 21.9068 39.4141V35.4865H23.5553C24.5325 35.4865 25.3275 34.6915 25.3275 33.7143V32.7295C26.478 32.7133 27.4091 31.773 27.4091 30.6189V30.0952H29.2887C29.8664 30.0952 30.3397 29.6619 30.3895 29.0872C30.4057 28.9032 30.4487 28.7302 30.5182 28.5733C30.7648 28.0155 31.3129 27.7624 31.9477 27.4695C32.6204 27.1591 33.3823 26.8076 33.8489 26.019C34.2246 25.3845 34.3263 24.5914 34.1511 23.6618C34.0525 23.1388 33.5954 22.7591 33.064 22.7591H27.4091V21.5314H29.2887ZM33.0091 15.3671C33.1175 15.9845 33.0607 16.4859 32.8407 16.8582C32.5599 17.3324 32.0487 17.5684 31.4567 17.8415C30.7139 18.1842 29.8719 18.5727 29.4465 19.5355C29.3329 19.7922 29.2594 20.0693 29.2282 20.3595H27.4095V15.3671H33.0091ZM33.0091 6.80305C33.1175 7.42063 33.0607 7.92203 32.8407 8.29406C32.5599 8.76828 32.0487 9.00422 31.4567 9.27734C30.7139 9.62008 29.8719 10.0086 29.4462 10.9714C29.3326 11.2284 29.2594 11.5052 29.228 11.7953H27.4091V6.80297L33.0091 6.80305ZM10.3397 11.7953C10.3083 11.5052 10.235 11.2284 10.1215 10.9714C9.69574 10.0085 8.85379 9.62008 8.11105 9.27734C7.51902 9.00422 7.00785 8.76828 6.72707 8.29406C6.50699 7.92203 6.45051 7.42063 6.55863 6.80297H12.1586V11.7953H10.3397ZM10.3397 20.3595C10.3083 20.0693 10.235 19.7925 10.1215 19.5355C9.69574 18.5727 8.85379 18.1842 8.11105 17.8415C7.51902 17.5684 7.00785 17.3324 6.72707 16.8582C6.50699 16.4859 6.45051 15.9845 6.55863 15.3671H12.1586V20.3595H10.3397ZM23.5553 34.3146H16.012C15.6812 34.3146 15.4118 34.0454 15.4118 33.7143V32.7304H24.1557V33.7143C24.156 34.0454 23.8864 34.3146 23.5553 34.3146ZM26.2372 30.6189C26.2372 31.1371 25.8158 31.5585 25.2979 31.5585H14.2698C13.7518 31.5585 13.3304 31.1371 13.3304 30.6189V28.1818C13.3304 28.0264 13.2687 27.8774 13.1588 27.7675C13.0489 27.6576 12.8999 27.5959 12.7445 27.5959C12.6675 27.5958 12.5913 27.611 12.5202 27.6404C12.4491 27.6698 12.3845 27.713 12.3301 27.7674C12.2757 27.8218 12.2325 27.8864 12.2031 27.9575C12.1737 28.0286 12.1585 28.1048 12.1586 28.1818V28.9234H10.3397C10.3083 28.6331 10.235 28.3563 10.1215 28.0997C9.69574 27.1369 8.85379 26.7484 8.11105 26.4053C7.51902 26.1322 7.00785 25.8963 6.72707 25.422C6.50699 25.0501 6.45051 24.5486 6.55863 23.9309H12.1586V25.1163C12.1586 25.4401 12.4211 25.7022 12.7446 25.7022C13.0681 25.7022 13.3305 25.4401 13.3305 25.1163V5.2643C13.3305 4.74633 13.7519 4.32492 14.2698 4.32492H18.7812C18.9366 4.32492 19.0856 4.26319 19.1955 4.1533C19.3054 4.04342 19.3671 3.89438 19.3671 3.73898C19.3671 3.41523 19.105 3.15305 18.7812 3.15305H15.4121V2.72523C15.4121 1.86859 16.1088 1.17188 16.9651 1.17188H22.6026C23.4589 1.17188 24.156 1.86859 24.156 2.72523V3.15305H21.9422C21.8653 3.15302 21.7891 3.16815 21.718 3.19759C21.6469 3.22702 21.5823 3.27018 21.5278 3.3246C21.4734 3.37901 21.4303 3.44362 21.4008 3.51472C21.3714 3.58582 21.3563 3.66203 21.3563 3.73898C21.3563 3.89438 21.418 4.04342 21.5279 4.1533C21.6378 4.26319 21.7868 4.32492 21.9422 4.32492H25.2979C25.8161 4.32492 26.2375 4.74641 26.2375 5.2643V30.6189H26.2372ZM33.0091 23.9313C33.1175 24.5487 33.0607 25.05 32.8407 25.422C32.5599 25.8966 32.0487 26.1325 31.4567 26.4056C30.7139 26.7484 29.8719 27.1369 29.4465 28.0997C29.3329 28.3563 29.2594 28.6331 29.2282 28.9237H27.4095V23.9313H33.0091Z" fill="#1D2939"/>
<path id="Vector_2" d="M19.784 5.6311C17.8306 5.6311 16.2415 7.22017 16.2415 9.1736C16.2415 11.1267 17.8306 12.7161 19.784 12.7161C21.7371 12.7161 23.3262 11.1267 23.3262 9.1736C23.3262 7.22017 21.7371 5.6311 19.784 5.6311ZM19.784 11.5442C18.477 11.5442 17.4134 10.4806 17.4134 9.1736C17.4134 7.86657 18.4767 6.80298 19.784 6.80298C21.091 6.80298 22.1543 7.86649 22.1543 9.1736C22.1543 10.4807 21.091 11.5442 19.784 11.5442ZM19.784 14.7415C17.8306 14.7415 16.2415 16.3306 16.2415 18.284C16.2415 20.2374 17.8306 21.8265 19.784 21.8265C21.7371 21.8265 23.3262 20.2374 23.3262 18.284C23.3262 16.3306 21.7371 14.7415 19.784 14.7415ZM19.784 20.6546C18.477 20.6546 17.4134 19.5911 17.4134 18.284C17.4134 16.977 18.4767 15.9134 19.784 15.9134C21.091 15.9134 22.1543 16.977 22.1543 18.284C22.1543 19.591 21.091 20.6546 19.784 20.6546ZM19.784 23.0106C17.8306 23.0106 16.2415 24.5996 16.2415 26.5531C16.2415 28.5062 17.8306 30.0952 19.784 30.0952C21.7371 30.0952 23.3262 28.5062 23.3262 26.5531C23.3262 24.5996 21.7371 23.0106 19.784 23.0106ZM19.784 28.9234C18.477 28.9234 17.4134 27.8601 17.4134 26.5531C17.4134 25.2457 18.4767 24.1824 19.784 24.1824C21.091 24.1824 22.1543 25.2457 22.1543 26.5531C22.1543 27.8601 21.091 28.9234 19.784 28.9234Z" fill="#1D2939"/>
</g>
</g>
</svg>
