<svg width="24" height="24" viewBox="0 0 24 24" fill="none" xmlns="http://www.w3.org/2000/svg">
<g id="WhatsApp">
<g id="WhatsApp_2">
<rect id="Rectangle" width="24" height="24" rx="12" fill="#0DC143"/>
<path id="Vector" d="M17.3753 6.60574C16.0889 5.28142 14.3105 4.5625 12.4943 4.5625C8.6348 4.5625 5.5321 7.70304 5.56994 11.5247C5.56994 12.7355 5.91048 13.9084 6.47805 14.9679L5.49426 18.5625L9.16453 17.6166C10.1862 18.1841 11.3213 18.449 12.4564 18.449C16.278 18.449 19.3808 15.3084 19.3808 11.4868C19.3808 9.63277 18.6618 7.89223 17.3753 6.60574ZM12.4943 17.276C11.4726 17.276 10.451 17.0111 9.58075 16.4814L9.35372 16.3679L7.15913 16.9355L7.7267 14.7787L7.57534 14.5517C5.91048 11.8652 6.70507 8.30845 9.4294 6.64358C12.1537 4.97872 15.6726 5.77331 17.3375 8.49763C19.0024 11.222 18.2078 14.7409 15.4835 16.4057C14.6132 16.9733 13.5537 17.276 12.4943 17.276ZM15.824 13.076L15.4078 12.8868C15.4078 12.8868 14.8024 12.622 14.424 12.4328C14.3862 12.4328 14.3483 12.3949 14.3105 12.3949C14.197 12.3949 14.1213 12.4328 14.0456 12.4706C14.0456 12.4706 14.0078 12.5084 13.478 13.1139C13.4402 13.1895 13.3645 13.2274 13.2889 13.2274H13.251C13.2132 13.2274 13.1375 13.1895 13.0997 13.1517L12.9105 13.076C12.4943 12.8868 12.1159 12.6598 11.8132 12.3571C11.7375 12.2814 11.624 12.2057 11.5483 12.1301C11.2835 11.8652 11.0186 11.5625 10.8294 11.222L10.7916 11.1463C10.7537 11.1084 10.7537 11.0706 10.7159 10.9949C10.7159 10.9193 10.7159 10.8436 10.7537 10.8057C10.7537 10.8057 10.9051 10.6166 11.0186 10.503C11.0943 10.4274 11.1321 10.3139 11.2078 10.2382C11.2835 10.1247 11.3213 9.97331 11.2835 9.8598C11.2456 9.67061 10.7916 8.64899 10.678 8.42196C10.6024 8.30845 10.5267 8.27061 10.4132 8.23277H10.2997C10.224 8.23277 10.1105 8.23277 9.99697 8.23277C9.92129 8.23277 9.84561 8.27061 9.76994 8.27061L9.7321 8.30845C9.65643 8.34628 9.58075 8.42196 9.50507 8.4598C9.4294 8.53547 9.39156 8.61115 9.31588 8.68682C9.05102 9.02736 8.89967 9.44358 8.89967 9.8598C8.89967 10.1625 8.97534 10.4652 9.08886 10.7301L9.1267 10.8436C9.46724 11.5625 9.92129 12.2057 10.5267 12.7733L10.678 12.9247C10.7916 13.0382 10.9051 13.1139 10.9807 13.2274C11.7753 13.9084 12.6835 14.4003 13.7051 14.6652C13.8186 14.703 13.9699 14.703 14.0835 14.7409C14.197 14.7409 14.3483 14.7409 14.4618 14.7409C14.651 14.7409 14.878 14.6652 15.0294 14.5895C15.1429 14.5139 15.2186 14.5139 15.2943 14.4382L15.3699 14.3625C15.4456 14.2868 15.5213 14.249 15.597 14.1733C15.6726 14.0976 15.7483 14.022 15.7862 13.9463C15.8618 13.7949 15.8997 13.6057 15.9375 13.4166C15.9375 13.3409 15.9375 13.2274 15.9375 13.1517C15.9375 13.1517 15.8997 13.1139 15.824 13.076Z" fill="white"/>
</g>
</g>
</svg>
